<mxfile host="app.diagrams.net" agent="Mozilla/5.0 (Windows NT 10.0; Win64; x64) AppleWebKit/537.36 (KHTML, like Gecko) Chrome/131.0.0.0 Safari/537.36" version="24.8.6">
  <diagram name="Page-1" id="JMVAUzZ0o1ExUXUQUCg5">
    <mxGraphModel dx="1465" dy="858" grid="1" gridSize="10" guides="1" tooltips="1" connect="1" arrows="1" fold="1" page="1" pageScale="1" pageWidth="1169" pageHeight="827" math="0" shadow="0">
      <root>
        <mxCell id="0" />
        <mxCell id="1" parent="0" />
        <mxCell id="M8tLcc11VRAPwzMgu9lw-11" value="Jetson Orin AGX&lt;br&gt;&lt;br&gt;ROS2 Humble" style="text;html=1;align=center;verticalAlign=middle;whiteSpace=wrap;rounded=0;" vertex="1" parent="1">
          <mxGeometry x="10" y="20" width="150" height="30" as="geometry" />
        </mxCell>
        <mxCell id="M8tLcc11VRAPwzMgu9lw-61" value="" style="group" vertex="1" connectable="0" parent="1">
          <mxGeometry x="30" y="80" width="970" height="290" as="geometry" />
        </mxCell>
        <mxCell id="M8tLcc11VRAPwzMgu9lw-56" value="" style="rounded=0;whiteSpace=wrap;html=1;" vertex="1" parent="M8tLcc11VRAPwzMgu9lw-61">
          <mxGeometry width="970" height="290" as="geometry" />
        </mxCell>
        <mxCell id="M8tLcc11VRAPwzMgu9lw-55" value="" style="group" vertex="1" connectable="0" parent="M8tLcc11VRAPwzMgu9lw-61">
          <mxGeometry x="10" y="20" width="940" height="250" as="geometry" />
        </mxCell>
        <mxCell id="M8tLcc11VRAPwzMgu9lw-12" value="IMU Inputs from Sentry" style="whiteSpace=wrap;html=1;aspect=fixed;rounded=1;" vertex="1" parent="M8tLcc11VRAPwzMgu9lw-55">
          <mxGeometry y="80" width="70" height="70" as="geometry" />
        </mxCell>
        <mxCell id="M8tLcc11VRAPwzMgu9lw-13" value="LiDAR Input" style="whiteSpace=wrap;html=1;aspect=fixed;rounded=1;" vertex="1" parent="M8tLcc11VRAPwzMgu9lw-55">
          <mxGeometry y="170" width="60" height="60" as="geometry" />
        </mxCell>
        <mxCell id="M8tLcc11VRAPwzMgu9lw-14" value="" style="endArrow=classic;html=1;rounded=0;exitX=1;exitY=0.5;exitDx=0;exitDy=0;entryX=0;entryY=0.5;entryDx=0;entryDy=0;" edge="1" parent="M8tLcc11VRAPwzMgu9lw-55" source="M8tLcc11VRAPwzMgu9lw-13" target="M8tLcc11VRAPwzMgu9lw-15">
          <mxGeometry width="50" height="50" relative="1" as="geometry">
            <mxPoint x="390" y="210" as="sourcePoint" />
            <mxPoint x="100" y="162" as="targetPoint" />
          </mxGeometry>
        </mxCell>
        <mxCell id="M8tLcc11VRAPwzMgu9lw-20" style="edgeStyle=orthogonalEdgeStyle;rounded=0;orthogonalLoop=1;jettySize=auto;html=1;" edge="1" parent="M8tLcc11VRAPwzMgu9lw-55" source="M8tLcc11VRAPwzMgu9lw-15" target="M8tLcc11VRAPwzMgu9lw-18">
          <mxGeometry relative="1" as="geometry" />
        </mxCell>
        <mxCell id="M8tLcc11VRAPwzMgu9lw-15" value="Points Accumulation" style="rounded=1;whiteSpace=wrap;html=1;" vertex="1" parent="M8tLcc11VRAPwzMgu9lw-55">
          <mxGeometry x="120" y="170" width="120" height="60" as="geometry" />
        </mxCell>
        <mxCell id="M8tLcc11VRAPwzMgu9lw-16" value="" style="endArrow=classic;html=1;rounded=0;exitX=1;exitY=0.5;exitDx=0;exitDy=0;entryX=0;entryY=0.5;entryDx=0;entryDy=0;" edge="1" parent="M8tLcc11VRAPwzMgu9lw-55" source="M8tLcc11VRAPwzMgu9lw-12" target="M8tLcc11VRAPwzMgu9lw-17">
          <mxGeometry width="50" height="50" relative="1" as="geometry">
            <mxPoint x="80" y="100" as="sourcePoint" />
            <mxPoint x="130" y="50" as="targetPoint" />
          </mxGeometry>
        </mxCell>
        <mxCell id="M8tLcc11VRAPwzMgu9lw-19" style="edgeStyle=orthogonalEdgeStyle;rounded=0;orthogonalLoop=1;jettySize=auto;html=1;entryX=0.5;entryY=0;entryDx=0;entryDy=0;" edge="1" parent="M8tLcc11VRAPwzMgu9lw-55" source="M8tLcc11VRAPwzMgu9lw-17" target="M8tLcc11VRAPwzMgu9lw-18">
          <mxGeometry relative="1" as="geometry" />
        </mxCell>
        <mxCell id="M8tLcc11VRAPwzMgu9lw-17" value="Forward Propagation" style="rounded=1;whiteSpace=wrap;html=1;" vertex="1" parent="M8tLcc11VRAPwzMgu9lw-55">
          <mxGeometry x="120" y="85" width="120" height="60" as="geometry" />
        </mxCell>
        <mxCell id="M8tLcc11VRAPwzMgu9lw-22" style="edgeStyle=orthogonalEdgeStyle;rounded=0;orthogonalLoop=1;jettySize=auto;html=1;entryX=0;entryY=0.5;entryDx=0;entryDy=0;" edge="1" parent="M8tLcc11VRAPwzMgu9lw-55" source="M8tLcc11VRAPwzMgu9lw-18" target="M8tLcc11VRAPwzMgu9lw-21">
          <mxGeometry relative="1" as="geometry" />
        </mxCell>
        <mxCell id="M8tLcc11VRAPwzMgu9lw-18" value="Backward Propagation" style="rounded=1;whiteSpace=wrap;html=1;" vertex="1" parent="M8tLcc11VRAPwzMgu9lw-55">
          <mxGeometry x="270" y="170" width="120" height="60" as="geometry" />
        </mxCell>
        <mxCell id="M8tLcc11VRAPwzMgu9lw-25" style="edgeStyle=orthogonalEdgeStyle;rounded=0;orthogonalLoop=1;jettySize=auto;html=1;entryX=0.5;entryY=1;entryDx=0;entryDy=0;" edge="1" parent="M8tLcc11VRAPwzMgu9lw-55" source="M8tLcc11VRAPwzMgu9lw-21" target="M8tLcc11VRAPwzMgu9lw-23">
          <mxGeometry relative="1" as="geometry">
            <Array as="points">
              <mxPoint x="525" y="150" />
              <mxPoint x="525" y="150" />
            </Array>
          </mxGeometry>
        </mxCell>
        <mxCell id="M8tLcc11VRAPwzMgu9lw-21" value="Residual Computation" style="rounded=1;whiteSpace=wrap;html=1;" vertex="1" parent="M8tLcc11VRAPwzMgu9lw-55">
          <mxGeometry x="420" y="170" width="120" height="60" as="geometry" />
        </mxCell>
        <mxCell id="M8tLcc11VRAPwzMgu9lw-29" style="edgeStyle=orthogonalEdgeStyle;rounded=0;orthogonalLoop=1;jettySize=auto;html=1;entryX=1;entryY=0.5;entryDx=0;entryDy=0;" edge="1" parent="M8tLcc11VRAPwzMgu9lw-55" source="M8tLcc11VRAPwzMgu9lw-23" target="M8tLcc11VRAPwzMgu9lw-24">
          <mxGeometry relative="1" as="geometry" />
        </mxCell>
        <mxCell id="M8tLcc11VRAPwzMgu9lw-23" value="State Update" style="rounded=0;whiteSpace=wrap;html=1;" vertex="1" parent="M8tLcc11VRAPwzMgu9lw-55">
          <mxGeometry x="490" y="72.5" width="70" height="60" as="geometry" />
        </mxCell>
        <mxCell id="M8tLcc11VRAPwzMgu9lw-27" style="edgeStyle=orthogonalEdgeStyle;rounded=0;orthogonalLoop=1;jettySize=auto;html=1;entryX=0.25;entryY=0;entryDx=0;entryDy=0;" edge="1" parent="M8tLcc11VRAPwzMgu9lw-55" source="M8tLcc11VRAPwzMgu9lw-24" target="M8tLcc11VRAPwzMgu9lw-21">
          <mxGeometry relative="1" as="geometry" />
        </mxCell>
        <mxCell id="M8tLcc11VRAPwzMgu9lw-28" value="N" style="edgeLabel;html=1;align=center;verticalAlign=middle;resizable=0;points=[];" vertex="1" connectable="0" parent="M8tLcc11VRAPwzMgu9lw-27">
          <mxGeometry x="-0.7329" y="-1" relative="1" as="geometry">
            <mxPoint x="-9" y="-4" as="offset" />
          </mxGeometry>
        </mxCell>
        <mxCell id="M8tLcc11VRAPwzMgu9lw-31" style="edgeStyle=orthogonalEdgeStyle;rounded=0;orthogonalLoop=1;jettySize=auto;html=1;entryX=0.5;entryY=1;entryDx=0;entryDy=0;" edge="1" parent="M8tLcc11VRAPwzMgu9lw-55" source="M8tLcc11VRAPwzMgu9lw-24" target="M8tLcc11VRAPwzMgu9lw-30">
          <mxGeometry relative="1" as="geometry">
            <Array as="points">
              <mxPoint x="410" y="45" />
            </Array>
          </mxGeometry>
        </mxCell>
        <mxCell id="M8tLcc11VRAPwzMgu9lw-32" value="Y" style="edgeLabel;html=1;align=center;verticalAlign=middle;resizable=0;points=[];" vertex="1" connectable="0" parent="M8tLcc11VRAPwzMgu9lw-31">
          <mxGeometry x="0.6599" y="1" relative="1" as="geometry">
            <mxPoint x="-9" y="5" as="offset" />
          </mxGeometry>
        </mxCell>
        <mxCell id="M8tLcc11VRAPwzMgu9lw-24" value="Converged?" style="rhombus;whiteSpace=wrap;html=1;" vertex="1" parent="M8tLcc11VRAPwzMgu9lw-55">
          <mxGeometry x="370" y="65" width="80" height="75" as="geometry" />
        </mxCell>
        <mxCell id="M8tLcc11VRAPwzMgu9lw-39" style="edgeStyle=orthogonalEdgeStyle;rounded=0;orthogonalLoop=1;jettySize=auto;html=1;entryX=0.5;entryY=0;entryDx=0;entryDy=0;" edge="1" parent="M8tLcc11VRAPwzMgu9lw-55" source="M8tLcc11VRAPwzMgu9lw-30" target="M8tLcc11VRAPwzMgu9lw-36">
          <mxGeometry relative="1" as="geometry" />
        </mxCell>
        <mxCell id="M8tLcc11VRAPwzMgu9lw-30" value="Odometry Output" style="rounded=1;whiteSpace=wrap;html=1;" vertex="1" parent="M8tLcc11VRAPwzMgu9lw-55">
          <mxGeometry x="350" width="120" height="45" as="geometry" />
        </mxCell>
        <mxCell id="M8tLcc11VRAPwzMgu9lw-33" style="edgeStyle=orthogonalEdgeStyle;rounded=0;orthogonalLoop=1;jettySize=auto;html=1;entryX=0.469;entryY=0.016;entryDx=0;entryDy=0;entryPerimeter=0;" edge="1" parent="M8tLcc11VRAPwzMgu9lw-55" source="M8tLcc11VRAPwzMgu9lw-30" target="M8tLcc11VRAPwzMgu9lw-17">
          <mxGeometry relative="1" as="geometry" />
        </mxCell>
        <mxCell id="M8tLcc11VRAPwzMgu9lw-42" style="edgeStyle=orthogonalEdgeStyle;rounded=0;orthogonalLoop=1;jettySize=auto;html=1;entryX=0.5;entryY=0;entryDx=0;entryDy=0;" edge="1" parent="M8tLcc11VRAPwzMgu9lw-55" source="M8tLcc11VRAPwzMgu9lw-35" target="M8tLcc11VRAPwzMgu9lw-41">
          <mxGeometry relative="1" as="geometry" />
        </mxCell>
        <mxCell id="M8tLcc11VRAPwzMgu9lw-35" value="Point-wise Insert&lt;div&gt;On-Tree Downsampling&lt;/div&gt;" style="rounded=1;whiteSpace=wrap;html=1;" vertex="1" parent="M8tLcc11VRAPwzMgu9lw-55">
          <mxGeometry x="630" y="30" width="130" height="60" as="geometry" />
        </mxCell>
        <mxCell id="M8tLcc11VRAPwzMgu9lw-38" style="edgeStyle=orthogonalEdgeStyle;rounded=0;orthogonalLoop=1;jettySize=auto;html=1;entryX=0.5;entryY=0;entryDx=0;entryDy=0;" edge="1" parent="M8tLcc11VRAPwzMgu9lw-55" source="M8tLcc11VRAPwzMgu9lw-36" target="M8tLcc11VRAPwzMgu9lw-37">
          <mxGeometry relative="1" as="geometry" />
        </mxCell>
        <mxCell id="M8tLcc11VRAPwzMgu9lw-36" value="Map Move?" style="rhombus;whiteSpace=wrap;html=1;" vertex="1" parent="M8tLcc11VRAPwzMgu9lw-55">
          <mxGeometry x="840" y="45" width="80" height="80" as="geometry" />
        </mxCell>
        <mxCell id="M8tLcc11VRAPwzMgu9lw-43" style="edgeStyle=orthogonalEdgeStyle;rounded=0;orthogonalLoop=1;jettySize=auto;html=1;" edge="1" parent="M8tLcc11VRAPwzMgu9lw-55" source="M8tLcc11VRAPwzMgu9lw-37" target="M8tLcc11VRAPwzMgu9lw-41">
          <mxGeometry relative="1" as="geometry" />
        </mxCell>
        <mxCell id="M8tLcc11VRAPwzMgu9lw-37" value="Box-wise Delete" style="rounded=1;whiteSpace=wrap;html=1;" vertex="1" parent="M8tLcc11VRAPwzMgu9lw-55">
          <mxGeometry x="820" y="145" width="120" height="35" as="geometry" />
        </mxCell>
        <mxCell id="M8tLcc11VRAPwzMgu9lw-40" value="" style="endArrow=classic;html=1;rounded=0;entryX=0.005;entryY=0.43;entryDx=0;entryDy=0;entryPerimeter=0;" edge="1" parent="M8tLcc11VRAPwzMgu9lw-55" target="M8tLcc11VRAPwzMgu9lw-35">
          <mxGeometry width="50" height="50" relative="1" as="geometry">
            <mxPoint x="410" y="56" as="sourcePoint" />
            <mxPoint x="530" y="30" as="targetPoint" />
          </mxGeometry>
        </mxCell>
        <mxCell id="M8tLcc11VRAPwzMgu9lw-44" style="edgeStyle=orthogonalEdgeStyle;rounded=0;orthogonalLoop=1;jettySize=auto;html=1;entryX=1;entryY=0.5;entryDx=0;entryDy=0;" edge="1" parent="M8tLcc11VRAPwzMgu9lw-55" source="M8tLcc11VRAPwzMgu9lw-41" target="M8tLcc11VRAPwzMgu9lw-21">
          <mxGeometry relative="1" as="geometry" />
        </mxCell>
        <mxCell id="M8tLcc11VRAPwzMgu9lw-45" value="kNN Search" style="edgeLabel;html=1;align=center;verticalAlign=middle;resizable=0;points=[];" vertex="1" connectable="0" parent="M8tLcc11VRAPwzMgu9lw-44">
          <mxGeometry x="-0.6583" y="-1" relative="1" as="geometry">
            <mxPoint x="-12" y="-11" as="offset" />
          </mxGeometry>
        </mxCell>
        <mxCell id="M8tLcc11VRAPwzMgu9lw-47" style="edgeStyle=orthogonalEdgeStyle;rounded=0;orthogonalLoop=1;jettySize=auto;html=1;entryX=0;entryY=0.5;entryDx=0;entryDy=0;" edge="1" parent="M8tLcc11VRAPwzMgu9lw-55" source="M8tLcc11VRAPwzMgu9lw-41" target="M8tLcc11VRAPwzMgu9lw-46">
          <mxGeometry relative="1" as="geometry" />
        </mxCell>
        <mxCell id="M8tLcc11VRAPwzMgu9lw-41" value="ikd-Tree" style="rounded=1;whiteSpace=wrap;html=1;" vertex="1" parent="M8tLcc11VRAPwzMgu9lw-55">
          <mxGeometry x="635" y="132.5" width="120" height="60" as="geometry" />
        </mxCell>
        <mxCell id="M8tLcc11VRAPwzMgu9lw-50" style="edgeStyle=orthogonalEdgeStyle;rounded=0;orthogonalLoop=1;jettySize=auto;html=1;entryX=0;entryY=0.5;entryDx=0;entryDy=0;" edge="1" parent="M8tLcc11VRAPwzMgu9lw-55" source="M8tLcc11VRAPwzMgu9lw-46" target="M8tLcc11VRAPwzMgu9lw-49">
          <mxGeometry relative="1" as="geometry" />
        </mxCell>
        <mxCell id="M8tLcc11VRAPwzMgu9lw-51" value="Y" style="edgeLabel;html=1;align=center;verticalAlign=middle;resizable=0;points=[];" vertex="1" connectable="0" parent="M8tLcc11VRAPwzMgu9lw-50">
          <mxGeometry x="0.5551" y="1" relative="1" as="geometry">
            <mxPoint y="11" as="offset" />
          </mxGeometry>
        </mxCell>
        <mxCell id="M8tLcc11VRAPwzMgu9lw-46" value="Unbalanced?" style="rhombus;whiteSpace=wrap;html=1;" vertex="1" parent="M8tLcc11VRAPwzMgu9lw-55">
          <mxGeometry x="730" y="190" width="90" height="60" as="geometry" />
        </mxCell>
        <mxCell id="M8tLcc11VRAPwzMgu9lw-49" value="Tree Rebuild" style="rounded=1;whiteSpace=wrap;html=1;" vertex="1" parent="M8tLcc11VRAPwzMgu9lw-55">
          <mxGeometry x="840" y="205" width="100" height="30" as="geometry" />
        </mxCell>
        <mxCell id="M8tLcc11VRAPwzMgu9lw-59" value="FastLIO" style="text;html=1;align=center;verticalAlign=middle;whiteSpace=wrap;rounded=0;" vertex="1" parent="M8tLcc11VRAPwzMgu9lw-55">
          <mxGeometry x="-10" y="-30" width="100" height="60" as="geometry" />
        </mxCell>
        <mxCell id="M8tLcc11VRAPwzMgu9lw-57" value="Text" style="text;html=1;align=center;verticalAlign=middle;whiteSpace=wrap;rounded=0;" vertex="1" parent="M8tLcc11VRAPwzMgu9lw-61">
          <mxGeometry x="450" y="140" width="60" height="30" as="geometry" />
        </mxCell>
        <mxCell id="M8tLcc11VRAPwzMgu9lw-58" value="Text" style="text;html=1;align=center;verticalAlign=middle;whiteSpace=wrap;rounded=0;" vertex="1" parent="M8tLcc11VRAPwzMgu9lw-61">
          <mxGeometry x="450" y="140" width="60" height="30" as="geometry" />
        </mxCell>
      </root>
    </mxGraphModel>
  </diagram>
</mxfile>
